<?xml version="1.0" encoding="UTF-8" standalone="no"?>
<!-- Created with Inkscape (http://www.inkscape.org/) -->

<svg
	width="560"
	height="175"
	viewBox="0 0 148.16736 46.302092"
	version="1.1"
	id="svg5"
	inkscape:version="1.1 (c68e22c387, 2021-05-23)"
	sodipodi:docname="unswipe_logo.svg"
	xmlns:inkscape="http://www.inkscape.org/namespaces/inkscape"
	xmlns:sodipodi="http://sodipodi.sourceforge.net/DTD/sodipodi-0.dtd"
	xmlns="http://www.w3.org/2000/svg"
	xmlns:svg="http://www.w3.org/2000/svg">
	<sodipodi:namedview
		id="namedview7"
		pagecolor="#ffffff"
		bordercolor="#666666"
		borderopacity="1.0"
		inkscape:pageshadow="2"
		inkscape:pageopacity="0.0"
		inkscape:pagecheckerboard="0"
		inkscape:document-units="mm"
		showgrid="true"
		inkscape:zoom="2"
		inkscape:cx="140.75"
		inkscape:cy="339"
		inkscape:window-width="3840"
		inkscape:window-height="2050"
		inkscape:window-x="3348"
		inkscape:window-y="-12"
		inkscape:window-maximized="1"
		inkscape:current-layer="layer1"
		units="px" />
	<defs
		id="defs2" />
	<g
		inkscape:label="Layer 1"
		inkscape:groupmode="layer"
		id="layer1">
		<path
			style="fill:#462D5B;stroke-width:0.515169"
			d="m 90.908741,40.894957 c -0.69564,-0.69564 -0.809553,-2.75035 -0.809553,-14.60247 0,-12.7081 0.0741,-13.85998 0.942113,-14.64552 1.22449,-1.10815 2.29904,-1.0795 3.35698,0.0895 0.74823,0.82679 0.8526,2.61431 0.8526,14.60247 0,12.57967 -0.0745,13.72781 -0.94211,14.51296 -1.18318,1.07076 -2.35745,1.08563 -3.40003,0.043 z M 12.2012,33.496487 c -2.3922812,-0.77036 -4.3979182,-2.52955 -5.5151562,-4.83745 -0.932245,-1.92576 -1.04803,-3.17389 -1.074553,-9.424 -0.02067,-4.87094 -0.03615,-3.89307 0.0022,-5.33373 0.07212,-2.70816 1.364382,-3.04448 2.020062,-3.05411 0.496125,-0.007 2.047588,0.14376 2.3985352,3.05102 0.210961,1.74761 0.244425,2.45457 0.293629,4.97302 0.115826,5.92845 0.317037,6.97278 1.262424,8.23845 1.56667,2.09744 3.764417,2.5898 6.212344,1.39177 2.818878,-1.37957 3.249502,-2.63228 3.258258,-9.47848 0.0058,-4.53168 0.197589,-6.20986 0.80956,-7.08357 0.97386,-1.39038 2.463804,-1.56444 3.497125,-0.20285 0.721164,0.95027 0.851547,2.28213 0.845563,9.917 -0.0039,4.93619 -0.147483,9.49903 -0.319143,10.13965 -0.421234,1.57202 -2.508779,2.06008 -3.802732,0.88907 -0.937086,-0.84805 -1.075179,-0.85007 -2.320593,-0.0341 -1.570017,1.02872 -5.60331,1.48085 -7.567542,0.84833 z m 115.54252,-1.05823 c -1.77708,-0.84548 -3.37385,-2.19055 -4.50741,-4.0183 -1.16077,-1.87163 -1.45095,-4.56569 -1.45424,-6.50905 -0.003,-1.7767 0.12601,-4.34318 1.64746,-6.53382 5.21895,-7.5144296 17.06122,-4.93681 18.06077,3.93116 0.19454,1.72593 0.0414,3.99042 -0.39902,4.61851 -0.40237,0.57382 -2.03355,0.69856 -8.18778,0.70185 -3.54079,0.002 -6.10691,-0.08599 -6.31001,0.11375 -0.32092,0.315629 0.5647,1.87965 1.50302,2.80221 1.75094,1.72154 4.53206,2.19775 8.05809,1.3476 2.50974,-0.60512 3.78014,-0.25563 4.24763,0.93185 0.60895,1.54684 -0.7913,2.71904 -3.52503,3.36287 -3.18179,0.74936 -6.88042,0.32331 -9.13348,-0.74863 z m 8.8695,-12.66086 c -0.0497,-1.16573 -1.04198,-4.26876 -4.91083,-4.26382 -3.14226,0.004 -5.00566,2.17004 -5.04275,4.20244 -0.006,0.33014 1.88046,0.35139 4.91064,0.35139 4.47478,0 5.05947,0.0975 5.04294,-0.29001 z M 30.272148,32.950227 c -1.132269,-0.67556 -1.522884,-6.06924 -1.062784,-14.67513 0.357478,-6.68641 0.593957,-6.95312 1.824294,-7.20064 0.736098,-0.14808 1.516997,-0.17066 2.197765,0.48541 0.929693,0.89596 1.149969,0.85655 2.396951,0.29714 2.862936,-1.28433 6.093827,-1.23625 8.007821,-0.0428 2.700868,1.68417 3.188804,3.56291 3.188804,12.27813 0,6.77072 -0.109833,7.76363 -0.94211,8.51683 -1.291185,1.16851 -2.454273,1.06872 -3.407613,-0.29237 -0.630561,-0.90025 -0.801965,-2.6449 -0.801965,-8.16285 0,-6.14456 -0.11724,-7.124 -0.942111,-7.87049 -1.152733,-1.04321 -1.791063,-1.06411 -3.619697,-0.11848 -2.13584,1.10448 -2.649729,2.83466 -2.658151,8.94954 -0.0047,3.39551 -0.257029,6.00862 -0.656857,6.80174 -0.703474,1.39546 -2.188316,1.83107 -3.524347,1.03393 z m 18.71656,-0.10663 c -0.674984,-0.67498 -0.754029,-2.11947 -0.3055,-3.20343 0.195894,-0.47341 1.027235,-0.81488 3.027933,-0.81488 4.675521,0 5.22263,-2.38464 0.931995,-4.06221 -1.171404,-0.458 -2.826675,-1.30265 -3.458813,-2.08124 -0.899612,-1.10804 -1.349071,-2.16179 -1.321392,-4.12094 0.0092,-3.46837 0.732725,-5.03819 3.038317,-6.59193 3.223544,-2.1723496 8.287804,-1.15651 8.287804,1.66245 0,1.58716 -1.237281,2.25794 -3.584231,1.94315 -2.15781,-0.28942 -3.28941,0.65838 -3.023717,2.53261 0.124898,0.88107 0.9956,1.58627 3.374377,2.73299 3.805171,1.83432 4.740733,2.93188 4.762695,5.58737 0.03482,4.21049 -3.321294,7.03427 -8.360346,7.03427 -1.513006,0 -3.02911,-0.2782 -3.369122,-0.61821 z m 18.306186,-0.28334 c -0.801737,-1.52069 -5.832538,-16.7089 -6.045167,-19.57487 -0.10112,-1.36297 1.20208,-2.31075 2.676282,-2.10177 1.237363,0.17541 1.269345,0.25024 3.924932,9.18379 0.995399,3.3486 0.995399,3.3486 1.82613,1.45117 2.023753,-4.62235 6.36483,-4.62235 8.388587,0 0.83073,1.89743 0.83073,1.89743 1.82613,-1.45117 2.65558,-8.93355 2.68757,-9.00838 3.92493,-9.18379 1.47421,-0.20898 2.67629,0.73505 2.67629,2.10177 0,1.80283 -5.06807,17.3606 -6.08026,19.56318 -0.58076,1.26376 -1.92521,1.00679 -2.44945,0.45721 -0.75787,-0.7945 -1.02655,-1.45788 -2.47072,-5.43094 -0.606681,-1.66903 -0.824937,-2.83118 -1.621214,-2.87091 -0.843919,-0.0421 -1.072934,1.13127 -1.60952,2.82414 -1.151852,3.63396 -1.809656,4.87639 -2.601943,5.63657 -0.327463,0.31419 -1.666027,0.7214 -2.365007,-0.60438 z m 31.845587,0.081 c -0.70375,-0.70376 -0.80062,-2.22209 -0.68076,-10.67049 0.13975,-9.84997 0.42941,-10.00559 1.585559,-10.64199 0.489,-0.26917 1.50081,-0.5821 2.17088,0.18257 0.44032,0.50249 0.61787,1.19419 0.88775,1.46258 0.36765,0.20072 1.29148,-0.11223 2.67115,-0.84581 2.95714,-1.57233 5.41746,-1.67506 8.33929,-0.3482 5.51065,2.50249 7.11021,9.78083 3.14263,14.29965 -3.50862,3.9961 -8.87627,4.44155 -12.60427,1.04599 -1.15913,-1.05576 -1.15913,-1.05576 -1.15913,1.64375 0,1.48474 -0.23998,3.14793 -0.53329,3.69599 -0.64784,1.21049 -2.69115,1.30462 -3.819809,0.17596 z m 13.958029,-9.15852 c 2.09066,-1.79832 1.99029,-4.58158 -0.23699,-6.57165 -0.91116,-0.81413 -2.12817,-1.48023 -2.70446,-1.48023 -3.04965,0 -5.61122,3.27211 -4.61428,5.89424 1.27113,3.34335 4.95444,4.39517 7.55573,2.15764 z M 90.951791,8.3067174 c -1.108163,-1.2245 -0.983833,-2.47977 0.0895,-3.35698 1.27874,-1.04509 2.29904,-1.0795 3.35698,0.0895 1.10815,1.22449 1.0795,2.29904 -0.0895,3.35698 -1.2245,1.10815 -2.29904,1.0795 -3.35698,-0.0895 z"
			id="path1143"
			sodipodi:nodetypes="ssssscsssssssssssssscssssssssssssssssssssssssssssssssssscsssssssscsssssssssssssssssssssssssssscsssssssssssssssss" />
	</g>
</svg>